<?xml version="1.0" encoding="UTF-8"?>
<svg id="_레이어_2" data-name="레이어 2" xmlns="http://www.w3.org/2000/svg" xmlns:xlink="http://www.w3.org/1999/xlink" viewBox="0 0 280.73 71.99">
  <defs>
    <style>
      .cls-1 {
        clip-path: url(#clippath-6);
      }

      .cls-2 {
        clip-path: url(#clippath-4);
      }

      .cls-3 {
        fill: url(#linear-gradient-2);
      }

      .cls-4 {
        fill: #4c9237;
      }

      .cls-5 {
        fill: none;
      }

      .cls-6 {
        fill: url(#linear-gradient-4);
      }

      .cls-7 {
        fill: url(#linear-gradient-3);
      }

      .cls-8 {
        clip-path: url(#clippath-1);
      }

      .cls-9 {
        fill: url(#linear-gradient-5);
      }

      .cls-10 {
        clip-path: url(#clippath-5);
      }

      .cls-11 {
        fill: #253f8d;
      }

      .cls-12 {
        clip-path: url(#clippath-3);
      }

      .cls-13 {
        fill: #0c783b;
      }

      .cls-14 {
        fill: url(#linear-gradient-7);
      }

      .cls-15 {
        fill: url(#linear-gradient-6);
      }

      .cls-16 {
        clip-path: url(#clippath-2);
      }

      .cls-17 {
        fill: #223f8d;
      }

      .cls-18 {
        fill: url(#linear-gradient);
      }

      .cls-19 {
        clip-path: url(#clippath);
      }

      .cls-20 {
        fill: #464546;
      }
    </style>
    <clipPath id="clippath">
      <path class="cls-5" d="M0,43.68s6.34,32.27,44.3,27.9c0,0-.05-4.73-1.76-10.48-1.98.43-4.09.77-6.38,1.01,0,0-2.41-6.84-1.95-15.03-4.08-3.69-9.81-6.29-17.85-6.29-4.64,0-10.04.86-16.35,2.88"/>
    </clipPath>
    <linearGradient id="linear-gradient" x1="-330.76" y1="138.71" x2="-329.76" y2="138.71" gradientTransform="translate(-4608.63 11086.16) rotate(90) scale(33.39 -33.39)" gradientUnits="userSpaceOnUse">
      <stop offset="0" stop-color="#a5cd46"/>
      <stop offset=".78" stop-color="#5cb25a"/>
      <stop offset="1" stop-color="#5cb25a"/>
    </linearGradient>
    <clipPath id="clippath-1">
      <path class="cls-5" d="M55.46,21.72c.46,5.83-.62,10.55-.62,10.55-5.31-.52-9.59-1.62-13.04-3.13-5.41,5.28-7.27,11.97-7.6,17.94,4.46,4.03,6.95,9.36,8.34,14.02,34.08-7.4,23.46-41.2,23.46-41.2-3.97.33-7.47.96-10.54,1.82"/>
    </clipPath>
    <linearGradient id="linear-gradient-2" x1="-330.76" y1="138.85" x2="-329.76" y2="138.85" gradientTransform="translate(-12572.62 -5267.26) rotate(-180) scale(38.23 -38.23)" gradientUnits="userSpaceOnUse">
      <stop offset="0" stop-color="#a5cd46"/>
      <stop offset=".73" stop-color="#5cb25a"/>
      <stop offset="1" stop-color="#5cb25a"/>
    </linearGradient>
    <clipPath id="clippath-2">
      <path class="cls-5" d="M36.15,62.12c2.29-.24,4.41-.58,6.38-1.01-1.39-4.66-3.88-9.99-8.34-14.02-.45,8.19,1.95,15.03,1.95,15.03"/>
    </clipPath>
    <linearGradient id="linear-gradient-3" x1="-330.77" y1="138.8" x2="-329.77" y2="138.8" gradientTransform="translate(-4596.13 11077.62) rotate(90) scale(33.39 -33.39)" xlink:href="#linear-gradient"/>
    <clipPath id="clippath-3">
      <path class="cls-5" d="M29.36,0s-6.8,20.76,12.44,29.14c3.18-3.11,7.6-5.73,13.66-7.43C54.71,12.31,49.94,0,30.08,0c-.24,0-.48,0-.72,0"/>
    </clipPath>
    <linearGradient id="linear-gradient-4" x1="-330.77" y1="138.69" x2="-329.77" y2="138.69" gradientTransform="translate(-5634.77 13528.81) rotate(90) scale(40.91 -40.91)" gradientUnits="userSpaceOnUse">
      <stop offset="0" stop-color="#acdae4"/>
      <stop offset=".78" stop-color="#47bddd"/>
      <stop offset="1" stop-color="#47bddd"/>
    </linearGradient>
    <clipPath id="clippath-4">
      <path class="cls-5" d="M41.8,29.15c3.45,1.5,7.73,2.61,13.04,3.13,0,0,1.08-4.72.62-10.55-6.06,1.7-10.48,4.32-13.66,7.43"/>
    </clipPath>
    <linearGradient id="linear-gradient-5" x1="-330.76" y1="138.7" x2="-329.76" y2="138.7" gradientTransform="translate(-12586.96 -5275.22) rotate(-180) scale(38.23 -38.23)" xlink:href="#linear-gradient-2"/>
    <clipPath id="clippath-5">
      <path class="cls-5" d="M4.37,33.97c16.99-5.58,9.46-17.84,9.46-17.84C-2.91,23.05,4.37,33.97,4.37,33.97"/>
    </clipPath>
    <linearGradient id="linear-gradient-6" x1="-330.81" y1="138.76" x2="-329.81" y2="138.76" gradientTransform="translate(-3455.77 -1431.79) rotate(-180) scale(10.5 -10.5)" gradientUnits="userSpaceOnUse">
      <stop offset="0" stop-color="#a5cd46"/>
      <stop offset="1" stop-color="#5cb25a"/>
    </linearGradient>
    <clipPath id="clippath-6">
      <path class="cls-5" d="M57.51,65.64c9.83-6.19,10.06-11.89,10.06-11.89-13.48,1.21-10.06,11.89-10.06,11.89"/>
    </clipPath>
    <linearGradient id="linear-gradient-7" x1="-330.73" y1="138.72" x2="-329.74" y2="138.72" gradientTransform="translate(-5191.49 -2147.42) rotate(-180) scale(15.91 -15.91)" xlink:href="#linear-gradient-6"/>
  </defs>
  <g id="_레이어_1-2" data-name="레이어 1">
    <g class="cls-19">
      <rect class="cls-18" x="-5.98" y="31.64" width="56.25" height="53.46" transform="translate(-27.92 21.07) rotate(-32.53)"/>
    </g>
    <g class="cls-8">
      <rect class="cls-3" x="26.57" y="11.49" width="57.68" height="58.03" transform="translate(-8.78 64.81) rotate(-56.92)"/>
    </g>
    <g class="cls-16">
      <rect class="cls-7" x="30.39" y="45.9" width="15.5" height="17.4" transform="translate(-23.38 29.08) rotate(-32.54)"/>
    </g>
    <path class="cls-13" d="M36.15,62.12c2.29-.24,4.4-.58,6.38-1.01-1.39-4.66-3.88-9.99-8.34-14.02-.45,8.19,1.95,15.03,1.95,15.03"/>
    <g class="cls-12">
      <rect class="cls-6" x="17.3" y="-6.56" width="43.41" height="42.27" transform="translate(-1.72 23.27) rotate(-32.53)"/>
    </g>
    <g class="cls-2">
      <rect class="cls-9" x="40.58" y="18.2" width="16.55" height="17.59" transform="translate(-.44 53.2) rotate(-56.92)"/>
    </g>
    <path class="cls-13" d="M55.46,21.72c-6.06,1.7-10.48,4.32-13.66,7.43,3.45,1.5,7.73,2.61,13.04,3.13,0,0,1.08-4.72.62-10.55"/>
    <g class="cls-10">
      <rect class="cls-15" x="-4.93" y="10.02" width="28.3" height="30.08" transform="translate(-16.74 18.83) rotate(-56.31)"/>
    </g>
    <g class="cls-1">
      <rect class="cls-14" x="51.88" y="50.71" width="17.88" height="17.97" transform="translate(-24.31 63.56) rotate(-47.06)"/>
    </g>
    <polygon class="cls-11" points="81.6 13.71 76.48 12.96 74.2 8.33 71.91 12.96 66.79 13.71 70.49 17.32 69.62 22.41 74.2 20.01 78.77 22.41 77.9 17.32 81.6 13.71"/>
    <g>
      <path class="cls-4" d="M99.15,36.25c0-7.87,4.9-12.68,10.11-12.68,2.71,0,4.39,1.03,6.11,2.62l-.26-3.78v-8.47h6.32v34.31h-5.12l-.52-2.49h-.13c-1.76,1.72-4.17,3.1-6.66,3.1-5.98,0-9.85-4.73-9.85-12.6ZM115.1,41.15v-10.58c-1.46-1.33-2.97-1.81-4.47-1.81-2.71,0-4.99,2.58-4.99,7.4s1.81,7.48,4.99,7.48c1.68,0,3.1-.69,4.47-2.49Z"/>
      <path class="cls-4" d="M127.01,41.71c0-5.16,4.17-7.87,13.85-8.9-.09-2.37-1.12-4.17-4.08-4.17-2.24,0-4.39.99-6.62,2.28l-2.28-4.17c2.84-1.76,6.28-3.18,10.06-3.18,6.11,0,9.24,3.66,9.24,10.62v14.06h-5.16l-.47-2.58h-.13c-2.11,1.81-4.51,3.18-7.27,3.18-4.3,0-7.14-3.05-7.14-7.14ZM140.86,41.54v-4.86c-5.85.77-7.83,2.36-7.83,4.51,0,1.89,1.33,2.71,3.18,2.71s3.14-.86,4.64-2.37Z"/>
      <path class="cls-4" d="M153.63,24.17h5.16l.43,4.26h.17c1.76-3.14,4.34-4.86,6.84-4.86,1.33,0,2.11.21,2.84.52l-1.12,5.46c-.82-.26-1.5-.39-2.49-.39-1.89,0-4.17,1.25-5.55,4.73v14.36h-6.28v-24.08Z"/>
      <path class="cls-4" d="M172.12,39.22v-15.05h6.32v14.23c0,3.74,1.03,5.03,3.35,5.03,1.98,0,3.27-.86,4.9-3.01v-16.25h6.32v24.08h-5.16l-.47-3.44h-.17c-2.06,2.45-4.39,4.04-7.7,4.04-5.16,0-7.4-3.61-7.4-9.63Z"/>
    </g>
    <g>
      <path class="cls-17" d="M200.58,45.45l2.88-3.96c2.15,1.68,4.21,2.62,6.45,2.62,2.41,0,3.48-1.03,3.48-2.54,0-1.81-2.49-2.62-5.03-3.61-3.05-1.16-6.58-3.01-6.58-7.01,0-4.34,3.53-7.4,8.94-7.4,3.53,0,6.19,1.46,8.21,2.97l-2.84,3.83c-1.72-1.2-3.4-2.06-5.2-2.06-2.15,0-3.18.95-3.18,2.32,0,1.76,2.37,2.41,4.9,3.35,3.18,1.2,6.71,2.79,6.71,7.27,0,4.21-3.31,7.61-9.59,7.61-3.22,0-6.79-1.42-9.16-3.4Z"/>
      <path class="cls-17" d="M222.64,36.25c0-8.04,5.55-12.68,11.57-12.68s11.57,4.64,11.57,12.68-5.55,12.6-11.57,12.6-11.57-4.64-11.57-12.6ZM239.32,36.25c0-4.56-1.85-7.52-5.12-7.52s-5.12,2.97-5.12,7.52,1.85,7.44,5.12,7.44,5.12-2.92,5.12-7.44Z"/>
      <path class="cls-17" d="M263.7,18.84c-.82-.3-1.76-.52-2.54-.52-1.89,0-2.92,1.12-2.92,3.78v2.06h4.51v4.99h-4.51v19.09h-6.32v-19.09h-3.22v-4.69l3.22-.26v-1.98c0-5.03,2.32-8.9,8.38-8.9,1.85,0,3.48.43,4.56.86l-1.16,4.64Z"/>
      <path class="cls-17" d="M267.75,39.82v-10.66h-3.4v-4.69l3.7-.3.73-6.45h5.29v6.45h5.93v4.99h-5.93v10.66c0,2.75,1.12,4.04,3.27,4.04.77,0,1.72-.26,2.37-.52l1.03,4.6c-1.29.43-2.97.9-5.07.9-5.72,0-7.91-3.61-7.91-9.03Z"/>
    </g>
    <g>
      <path class="cls-20" d="M153.82,66.83c1.57-.02,2.88-.11,4.31-.35l.16,1.31c-1.67.3-3.18.36-5.1.36h-.95v-7.4h5.16v1.28h-3.57v4.8ZM162.07,65.12h-1.61v5.69h-1.58v-11.07h1.58v4.08h1.61v1.31Z"/>
      <path class="cls-20" d="M178.31,67.61h-4.23v3.19h-1.58v-3.19h-4.19v-1.27h10v1.27ZM175.55,61.33h-6.09v-1.25h7.7v3.3h-6.07v.91h6.33v1.25h-7.95v-3.35h6.08v-.86Z"/>
      <path class="cls-20" d="M194.8,68.2v1.27h-10v-1.27h4.16v-2.47h1.58v2.47h4.26ZM193.81,66.08c-1.94-.35-3.36-1.38-4.08-2.75-.72,1.35-2.12,2.4-4.05,2.75l-.65-1.31c2.49-.41,3.86-2.1,3.86-3.63v-.79h1.69v.79c0,1.57,1.36,3.23,3.87,3.63l-.65,1.31Z"/>
      <path class="cls-20" d="M211.28,68.21v1.28h-10v-1.28h10ZM203.56,61.95h-1.5v-1.26h8.4v1.26h-1.5v3.31h1.46v1.26h-8.3v-1.26h1.44v-3.31ZM207.38,61.95h-2.25v3.31h2.25v-3.31Z"/>
      <path class="cls-20" d="M227.77,68.22v1.28h-10v-1.28h10ZM226.7,66.68h-7.76v-6.14h7.68v1.27h-6.07v1.16h5.82v1.22h-5.82v1.24h6.15v1.25Z"/>
    </g>
  </g>
</svg>