<svg xmlns="http://www.w3.org/2000/svg" width="116.62092mm" height="29.889755mm" viewBox="0 0 116.62092 29.889755"><defs><linearGradient id="a" x1="183.20117" x2="212.96632" y1="330.18555" y2="298.2424" gradientUnits="userSpaceOnUse" spreadMethod="pad"><stop offset="0" style="stop-opacity:1;stop-color:#9a7144"/><stop offset="1" style="stop-opacity:1;stop-color:#2858aa"/></linearGradient><linearGradient id="b" x1="152.40039" x2="182.16422" y1="301.48438" y2="269.54263" gradientUnits="userSpaceOnUse" spreadMethod="pad"><stop offset="0" style="stop-opacity:1;stop-color:#9a7144"/><stop offset="1" style="stop-opacity:1;stop-color:#2858aa"/></linearGradient><linearGradient id="c" x1="180.00732" x2="209.77003" y1="327.20508" y2="295.26453" gradientUnits="userSpaceOnUse" spreadMethod="pad"><stop offset="0" style="stop-opacity:1;stop-color:#9a7144"/><stop offset="1" style="stop-opacity:1;stop-color:#2858aa"/></linearGradient><linearGradient id="d" x1="166.44824" x2="196.20898" y1="314.57422" y2="282.6358" gradientUnits="userSpaceOnUse" spreadMethod="pad"><stop offset="0" style="stop-opacity:1;stop-color:#9a7144"/><stop offset="1" style="stop-opacity:1;stop-color:#2858aa"/></linearGradient><linearGradient id="e" x1="166.49854" x2="196.25992" y1="314.62402" y2="282.68491" gradientUnits="userSpaceOnUse" spreadMethod="pad"><stop offset="0" style="stop-opacity:1;stop-color:#9a7144"/><stop offset="1" style="stop-opacity:1;stop-color:#2858aa"/></linearGradient><linearGradient id="f" x1="166.45068" x2="196.21373" y1="314.57129" y2="282.6304" gradientUnits="userSpaceOnUse" spreadMethod="pad"><stop offset="0" style="stop-opacity:1;stop-color:#9a7144"/><stop offset="1" style="stop-opacity:1;stop-color:#2858aa"/></linearGradient></defs><path d="m202.265 338.066-1.631-1.633.133-.14c4.143-4.598 7.089-9.964 8.764-15.956a39.791 39.791 0 0 0 .205-20.623 40.134 40.134 0 0 0-8.981-16.733l-.124-.145 1.779-1.78.141.16a42.681 42.681 0 0 1 9.624 17.872 42.412 42.412 0 0 1-.217 21.925c-1.79 6.403-4.952 12.137-9.402 17.045l-.145.157z" style="fill:url(#a);fill-opacity:1;fill-rule:nonzero;stroke:none" transform="matrix(.35278 0 0 -.35278 -45.432 124.177)"/><path d="m147.208 283.012-1.648-1.647.163-.143a38.511 38.511 0 0 1 15.925-8.533 38.105 38.105 0 0 1 19.75.202 37.669 37.669 0 0 1 15.186 8.319l.16.144-1.783 1.783-.143-.125a35.252 35.252 0 0 0-14.1-7.703 35.654 35.654 0 0 0-18.44-.185 35.915 35.915 0 0 0-14.791 7.896l-.144.125z" style="fill:url(#b);fill-opacity:1;fill-rule:nonzero;stroke:none" transform="matrix(.35278 0 0 -.35278 -45.432 124.177)"/><path d="m196.289 332.087-1.632-1.63.126-.143a31.101 31.101 0 0 0 6.627-12.24 31.4 31.4 0 0 0 .162-16.262 31.743 31.743 0 0 0-6.79-12.858l-.125-.143 1.778-1.78.144.163a34.306 34.306 0 0 1 7.427 13.991 33.864 33.864 0 0 1-.178 17.566 33.49 33.49 0 0 1-7.244 13.327l-.144.164z" style="fill:url(#c);fill-opacity:1;fill-rule:nonzero;stroke:none" transform="matrix(.35278 0 0 -.35278 -45.432 124.177)"/><path d="M159.765 350.441c-6.403-1.784-12.137-4.947-17.04-9.396l-1.834-1.76-1.152-1.231a42.737 42.737 0 0 1-9.62-17.874 42.381 42.381 0 0 1 .216-21.927c1.79-6.402 4.948-12.133 9.4-17.043l1.764-1.831 1.227-1.152a42.683 42.683 0 0 1 17.87-9.619 42.326 42.326 0 0 1 21.932.218 41.9 41.9 0 0 1 17.046 9.398l.156.143-1.779 1.78-.143-.13c-4.601-4.15-9.967-7.096-15.955-8.766a39.818 39.818 0 0 0-20.627-.206 40.095 40.095 0 0 0-16.732 8.977l-1.231 1.153c-.002 0-1.73 1.8-1.73 1.8-4.146 4.59-7.1 9.96-8.773 15.955a39.812 39.812 0 0 0-.202 20.623 40.167 40.167 0 0 0 8.976 16.734l1.152 1.233 1.8 1.733a39.528 39.528 0 0 0 15.953 8.766 39.872 39.872 0 0 0 20.63.204 40.168 40.168 0 0 0 16.734-8.98l.139-.13 1.783 1.781-.16.144a42.652 42.652 0 0 1-17.868 9.62 42.345 42.345 0 0 1-21.932-.217z" style="fill:url(#d);fill-opacity:1;fill-rule:nonzero;stroke:none" transform="matrix(.35278 0 0 -.35278 -45.432 124.177)"/><path d="M160.895 346.38c-5.69-1.588-10.802-4.383-15.185-8.322l-1.808-1.73-1.024-1.114c-4.216-4.717-7.167-10.223-8.677-16.085a38.114 38.114 0 0 1 .199-19.745c1.59-5.695 4.39-10.807 8.325-15.19l.145-.158 1.778 1.784-.128.145a35.299 35.299 0 0 0-7.702 14.095 35.646 35.646 0 0 0-.179 18.446c1.402 5.434 4.132 10.55 7.89 14.788.138.152 1.17 1.275 1.17 1.275l1.774 1.692a35.323 35.323 0 0 0 14.104 7.699 35.621 35.621 0 0 0 18.44.18 35.936 35.936 0 0 0 14.793-7.892c.047-.048 1.271-1.172 1.271-1.172l1.692-1.773a35.236 35.236 0 0 0 7.695-14.1 35.626 35.626 0 0 0 .183-18.442 35.855 35.855 0 0 0-7.893-14.788l-.125-.145 1.78-1.776.144.157a38.345 38.345 0 0 1 8.532 15.93 38.153 38.153 0 0 1-.191 19.743c-1.592 5.69-4.39 10.803-8.324 15.19l-1.727 1.806c-.007 0-1.117 1.03-1.117 1.03-4.714 4.203-10.219 7.157-16.085 8.671a38.189 38.189 0 0 1-19.75-.198z" style="fill:url(#e);fill-opacity:1;fill-rule:nonzero;stroke:none" transform="matrix(.35278 0 0 -.35278 -45.432 124.177)"/><path d="M162.031 342.321a33.634 33.634 0 0 1-13.328-7.252l-1.794-1.688-1.197-1.306c-3.528-4.015-6.1-8.853-7.425-13.994a33.92 33.92 0 0 1 .172-17.566 33.613 33.613 0 0 1 7.25-13.328l1.695-1.789 1.302-1.195a34.24 34.24 0 0 1 13.99-7.43 33.881 33.881 0 0 1 17.572.176 33.627 33.627 0 0 1 13.326 7.245l.16.149-1.783 1.783-.144-.128a31.167 31.167 0 0 0-12.245-6.628 31.436 31.436 0 0 0-16.258-.163 31.702 31.702 0 0 0-12.856 6.791l-1.304 1.2-1.65 1.755a31.025 31.025 0 0 0-6.626 12.242 31.381 31.381 0 0 0-.166 16.261 31.604 31.604 0 0 0 6.797 12.857l1.187 1.305 1.762 1.65a31.083 31.083 0 0 0 12.243 6.629 31.423 31.423 0 0 0 16.255.165 31.774 31.774 0 0 0 12.861-6.794l.144-.126 1.777 1.776-.158.146a34.136 34.136 0 0 1-13.996 7.427 33.919 33.919 0 0 1-17.563-.17z" style="fill:url(#f);fill-opacity:1;fill-rule:nonzero;stroke:none" transform="matrix(.35278 0 0 -.35278 -45.432 124.177)"/><path d="M223.5 298.878h1.28v-10.602h-1.28v10.602m5.423 0h1.623l-4.266-4.977 4.235-5.625h-1.623l-4.049 5.612zM235.12 296.202c1.282 0 2.117-.584 2.642-1.344.478-.693.71-1.607.71-2.853 0-2.569-1.375-3.928-3.307-3.928-2.117 0-3.322 1.56-3.322 4.094 0 2.504 1.252 4.031 3.277 4.031m-.017-.988c-.68 0-1.313-.322-1.576-.834-.247-.479-.371-1.098-.371-2.008 0-1.082.184-2.04.48-2.521.277-.461.895-.768 1.56-.768.804 0 1.407.416 1.67 1.156.17.48.231.912.231 1.668 0 1.082-.109 1.81-.356 2.319-.324.681-1.003.988-1.638.988zM241.193 295.85l1.204.323s.294-.602.248-1.248c.556.787 1.375 1.277 2.164 1.277.2 0 .416-.074.416-.074l-.493-1.313c-.078.028-.216.061-.342.061-.462 0-.927-.201-1.281-.557-.356-.357-.449-.584-.449-1.222v-4.82h-1.206v5.933c0 1.129-.261 1.64-.261 1.64zM252.242 289.839l.463-.774c-.68-.619-1.608-.957-2.596-.957-2.132 0-3.416 1.545-3.416 4.094 0 1.299.28 2.135.927 2.908.62.725 1.376 1.063 2.304 1.063.834 0 1.56-.293 2.086-.834.665-.68.85-1.406.88-3.244v-.17h-4.806v-.186c0-.728.094-1.287.356-1.685.433-.664 1.143-.94 1.916-.94.741 0 1.344.23 1.886.725m-4.158 2.994h3.524c-.015.838-.123 1.348-.356 1.719-.262.418-.803.68-1.39.68-1.098 0-1.716-.803-1.778-2.399zM255.565 295.14c1.019.675 2.117 1.033 3.229 1.033 1.066 0 1.809-.418 2.132-1.203.17-.418.186-1.008.17-1.701l-.062-2.534c-.03-1.252.046-1.578.618-1.886l-.618-.864a1.57 1.57 0 0 0-1.05 1.13c-.742-.745-1.345-1.038-2.225-1.038-1.902 0-2.472 1.16-2.472 2.192 0 1.748 1.499 2.767 4.08 2.767.324 0 .54-.016.54-.016v.543c0 .678-.032.957-.247 1.204-.248.28-.557.418-1.036.418-.865 0-1.964-.461-2.457-.91l-.603.865m4.311-2.951c-.2.013-.386.03-.602.03-1.947 0-2.643-.667-2.643-1.841 0-.912.449-1.404 1.33-1.404.787 0 1.514.478 1.87 1.203zM275.298 298.153l-.68-.822c-.633.467-1.235.668-2.008.668-1.221 0-2.102-.637-2.612-1.826-.309-.71-.448-1.56-.448-2.813 0-1.017.093-1.62.34-2.24.54-1.33 1.637-1.976 2.843-1.976.789 0 1.391.2 2.073.677l.677-.847a5.43 5.43 0 0 0-2.95-.866 4.115 4.115 0 0 0-3.092 1.405c-.897 1.02-1.266 2.457-1.266 4.033 0 3.154 1.885 5.473 4.451 5.473 1.019 0 1.946-.311 2.672-.866zM277.925 295.911l1.19.23v-5.529c0-.728.109-1.052.464-1.3.248-.168.604-.262.943-.262.756 0 1.545.556 1.963 1.39v5.456l1.19.203v-5.61c0-.976.139-1.363.525-1.718l-.773-.819c-.51.418-.726.727-.834 1.237-.588-.79-1.39-1.174-2.442-1.174-.974 0-1.7.418-2.024 1.1-.14.29-.202.693-.202 1.14zM288.418 297.688c0 1.174-.202 1.825-.202 1.825l-1.203-.235s.183-.57.183-1.574v-8.16c0-.559.124-.883.371-1.098.234-.215.543-.324.913-.324.325 0 .465.031.773.17l-.246.791s-.11-.033-.155-.033c-.341 0-.434.17-.434.771zM293.179 295.972c0 1.021.154 2.224.154 2.224l-1.268-.275s-.125-1.203-.125-1.95h-1.002v-.91h1.002v-5.285c0-.773.204-1.267.743-1.529a2.257 2.257 0 0 1 1.005-.219c.541 0 .973.11 1.36.31l-.17.776c-.217-.111-.416-.158-.756-.158-.758 0-.991.293-.991 1.145v4.96h1.607l.372.91zM297.52 295.911l1.189.23v-5.529c0-.728.11-1.052.466-1.3.246-.168.601-.262.942-.262.758 0 1.546.556 1.963 1.39v5.456l1.189.203v-5.61c0-.976.14-1.363.527-1.718l-.773-.819c-.51.418-.727.727-.834 1.237-.59-.79-1.391-1.174-2.443-1.174-.975 0-1.7.418-2.024 1.1-.139.29-.201.693-.201 1.14zM306.532 295.85l1.203.323s.295-.602.248-1.248c.557.787 1.375 1.277 2.164 1.277.202 0 .417-.074.417-.074l-.497-1.313a1.1 1.1 0 0 1-.338.061c-.462 0-.926-.201-1.282-.557-.356-.357-.448-.584-.448-1.222v-4.82h-1.205v5.933c0 1.129-.262 1.64-.262 1.64zM317.58 289.839l.464-.774c-.68-.619-1.607-.957-2.596-.957-2.134 0-3.417 1.545-3.417 4.094 0 1.299.279 2.135.927 2.908.62.725 1.377 1.063 2.305 1.063.834 0 1.56-.293 2.086-.834.665-.68.85-1.406.88-3.244v-.17h-4.806v-.186c0-.728.093-1.287.356-1.685.431-.664 1.142-.94 1.915-.94.742 0 1.344.23 1.885.725m-4.156 2.994h3.523c-.015.838-.123 1.348-.355 1.719-.262.418-.804.68-1.39.68-1.097 0-1.716-.803-1.778-2.399zM332.973 293.407c0-1.855-.233-2.52-.57-3.181l1.96-1.95h-1.605l-1.037 1.004c-.618-.756-1.793-1.234-3.03-1.234-2.209 0-3.584 1.16-3.584 2.86 0 1.343.819 2.038 2.162 2.689-1.001.894-1.498 1.605-1.498 2.377 0 1.422 1.297 2.443 2.748 2.443 1.534 0 2.846-.85 2.846-2.38 0-1.192-.789-1.794-2.209-2.552l2.488-2.455c.278.584.278 1.56.26 2.38h1.069m-4.975-.45c-1.053-.492-1.56-1.19-1.56-2.145 0-1.086.863-1.828 2.285-1.828 1.035 0 1.933.451 2.332.992l-3.057 2.981m2.04 3.092c0 .865-.62 1.484-1.499 1.484-.728 0-1.47-.418-1.47-1.406 0-.588.232-.973 1.392-1.979 1.203.575 1.576 1.16 1.576 1.9zM339.805 298.878h7.015l-.078-1.066h-2.875v-9.536h-1.22v9.536h-2.842zM350.48 296.202c1.286 0 2.118-.584 2.645-1.344.478-.693.709-1.607.709-2.853 0-2.569-1.375-3.928-3.307-3.928-2.115 0-3.32 1.56-3.32 4.094 0 2.504 1.25 4.031 3.274 4.031m-.014-.988c-.68 0-1.317-.322-1.578-.834-.246-.479-.371-1.098-.371-2.008 0-1.082.185-2.04.48-2.521.28-.461.897-.768 1.56-.768.803 0 1.407.416 1.67 1.156.169.48.231.912.231 1.668 0 1.082-.107 1.81-.355 2.319-.325.681-1.004.988-1.637.988zM356.772 290.255c0-.447.062-.85.2-1.14.323-.682 1.05-1.1 2.026-1.1 1.049 0 1.852.384 2.442 1.174.107-.51.322-.819.833-1.237l.772.819c-.387.355-.525.742-.525 1.718v5.61l-1.192-.203v-5.456c-.416-.834-1.205-1.39-1.959-1.39-.342 0-.697.094-.945.261-.356.249-.463.573-.463 1.301v5.53l-1.19-.23zM365.781 295.85l1.205.323s.293-.602.246-1.248c.557.787 1.373 1.277 2.164 1.277.202 0 .416-.074.416-.074l-.496-1.313a1.1 1.1 0 0 1-.337.061c-.465 0-.926-.201-1.282-.557-.355-.357-.447-.584-.447-1.222v-4.82h-1.209v5.933c0 1.129-.26 1.64-.26 1.64zM372.611 299.296a.94.94 0 0 0 .944-.94.94.94 0 0 0-.944-.945.935.935 0 0 0-.945.926c0 .525.418.959.945.959m-.65-3.356 1.252.202v-7.866h-1.252zM381.246 295.65l-.443-.899c-.682.328-1.252.559-1.932.559-.885 0-1.455-.512-1.455-1.268 0-.588.295-.945 1.115-1.113l1.02-.219c1.386-.291 2.054-1.002 2.054-2.146 0-1.499-1.175-2.518-2.908-2.518-.974 0-2.04.293-2.828.771l.467.899c.785-.479 1.59-.73 2.437-.73.944 0 1.565.513 1.565 1.331 0 .694-.389 1.08-1.27 1.264l-.955.203c-1.27.264-1.949 1.049-1.949 2.117 0 1.393 1.129 2.364 2.736 2.364.805 0 1.702-.246 2.346-.616zM384.092 295.88l1.174.28s.28-.602.28-1.143c.509.572 1.45 1.156 2.241 1.156a1.89 1.89 0 0 0 1.791-1.281c.742.789 1.688 1.28 2.469 1.28 1.146 0 1.937-.862 1.937-2.085v-5.81h-1.238v5.685c0 .744-.34 1.129-.988 1.129-.7 0-1.239-.447-2.043-1.19v-5.625h-1.22v5.471c0 .463-.046.773-.218.99-.183.215-.43.31-.785.31-.59 0-1.16-.296-1.963-1.023v-5.748h-1.16v5.965c0 1.114-.277 1.639-.277 1.639zM401.144 298.878h1.24v-10.602h-1.24zM405.582 295.835l1.172.324s.281-.57.281-1.207c.8.803 1.61 1.19 2.424 1.19.836 0 1.574-.446 1.887-1.125a2.27 2.27 0 0 0 .187-.899v-5.842h-1.224v5.207c0 .82-.061 1.022-.278 1.284-.172.203-.496.324-.851.324-.616 0-1.575-.492-2.131-1.08v-5.735h-1.172v5.934c0 1.1-.295 1.625-.295 1.625zM419.488 295.65l-.447-.899c-.682.328-1.252.559-1.93.559-.883 0-1.453-.512-1.453-1.268 0-.588.293-.945 1.111-1.113l1.02-.219c1.393-.291 2.055-1.002 2.055-2.146 0-1.499-1.172-2.518-2.904-2.518-.975 0-2.042.293-2.829.771l.461.899c.791-.479 1.596-.73 2.444-.73.943 0 1.564.513 1.564 1.331 0 .694-.389 1.08-1.27 1.264l-.958.203c-1.266.264-1.946 1.049-1.946 2.117 0 1.393 1.125 2.364 2.737 2.364a5.02 5.02 0 0 0 2.345-.616zM425.9 295.972l-.369-.91h-1.607V290.1c0-.852.232-1.145.988-1.145.344 0 .541.047.76.158l.168-.775c-.387-.201-.819-.31-1.358-.31-.404 0-.71.08-1.005.218-.542.262-.743.756-.743 1.53v5.285h-1.006v.91h1.006c0 .746.123 1.949.123 1.949l1.27.275s-.158-1.203-.158-2.224zM428.992 299.296a.937.937 0 0 0 .946-.94.939.939 0 0 0-.946-.945.93.93 0 0 0-.94.926c0 .525.415.959.94.959m-.648-3.356 1.252.202v-7.866h-1.252zM436.272 295.972l-.37-.91h-1.607V290.1c0-.852.228-1.145.988-1.145.342 0 .541.047.756.158l.17-.775c-.385-.201-.816-.31-1.361-.31-.399 0-.707.08-1 .218-.541.262-.744.756-.744 1.53v5.285h-1.006v.91h1.006c0 .746.123 1.949.123 1.949l1.27.275s-.16-1.203-.16-2.224zM438.684 295.911l1.189.23v-5.529c0-.728.11-1.052.467-1.3.244-.168.6-.262.937-.262.762 0 1.547.556 1.965 1.39v5.456l1.19.203v-5.61c0-.976.14-1.363.527-1.718l-.774-.819c-.513.418-.728.727-.837 1.237-.584-.79-1.389-1.174-2.438-1.174-.975 0-1.7.418-2.025 1.1-.14.29-.201.693-.201 1.14zM451.246 295.972l-.371-.91h-1.607V290.1c0-.852.234-1.145.99-1.145.34 0 .543.047.758.158l.171-.775c-.386-.201-.82-.31-1.36-.31-.405 0-.712.08-1.007.218-.54.262-.742.756-.742 1.53v5.285h-1.006v.91h1.006c0 .746.123 1.949.123 1.949l1.268.275s-.153-1.203-.153-2.224zM458.713 289.839l.46-.774c-.677-.619-1.609-.957-2.597-.957-2.129 0-3.416 1.545-3.416 4.094 0 1.299.281 2.135.932 2.908.613.725 1.375 1.063 2.3 1.063.835 0 1.565-.293 2.086-.834.665-.68.852-1.406.883-3.244v-.17h-4.808v-.186c0-.728.091-1.287.36-1.685.43-.664 1.138-.94 1.915-.94.736 0 1.344.23 1.885.725m-4.16 2.994h3.525c-.018.838-.121 1.348-.353 1.719-.264.418-.805.68-1.393.68-1.1 0-1.719-.803-1.78-2.399z" style="fill:#9a7144;fill-opacity:1;fill-rule:nonzero;stroke:none" transform="matrix(.35278 0 0 -.35278 -45.432 124.177)"/><path d="M340.775 320.046c1.291.144 2.422.303 3.387.477.461.095.703-.063.725-.477.017-.416-.186-.691-.608-.826a39.316 39.316 0 0 0-5.025-.926c-1.65-.193-3.672-.367-6.064-.521a2.108 2.108 0 0 1-.696-.204 3.644 3.644 0 0 1-.406-.2c-.02 0-.299.066-.84.2-.541.135-1.176.446-1.91.928-.465.309-.594.607-.39.897.2.29.554.396 1.054.318.639-.076 1.154-.13 1.55-.158.395-.03.962-.053 1.694-.073h.492c.213 0 .463.01.752.03v3.531c0 .387-.052.762-.158 1.129-.105.367-.469.6-1.086.695-.482.096-.681.328-.594.694.086.367.42.542 1 .521.04 0 .375-.014 1.014-.043.637-.03 1.332-.121 2.084-.275a4.8 4.8 0 0 1 .361-.07 2.87 2.87 0 0 1 .276-.046c-.02-.039-.078-.386-.174-1.043-.096-.656-.145-1.175-.145-1.562v-3.357c1.178.095 2.413.216 3.707.36m1.795 5.733c-.386-1.342-.83-2.427-1.332-3.258-.31-.519-.722-.714-1.246-.58-.521.137-.724.387-.607.754.328 1.08.594 2.166.795 3.258.203 1.09.343 1.992.422 2.707.037.27.023.479-.045.623-.067.145-.217.217-.45.217-.058 0-.603.023-1.634.072-1.034.05-2.409-.006-4.127-.16a2.034 2.034 0 0 1-.635-.187c-.233-.106-.36-.168-.377-.188-.02 0-.285.07-.797.217-.512.144-1.107.43-1.781.853-.598.407-.762.758-.492 1.057.27.299.695.39 1.275.275.79-.078 1.264-.125 1.418-.144.154-.02.762-.068 1.824-.145.502-.02 1.352-.021 2.547 0 1.197.018 2.201.037 3.012.057.154 0 .351.053.594.16.24.106.37.168.39.188.04 0 .256-.043.653-.131.394-.086.699-.237.91-.447.29-.27.478-.545.566-.827.086-.279.08-.67-.016-1.172a88.585 88.585 0 0 0-.867-3.199m8.485-17.85c-.06-.462-.31-.714-.756-.753a10.762 10.762 0 0 0-1.084-.059c-.358 0-.79.012-1.29.03l-7.468-.03c-1.258 0-1.758.194-2.05.285-.698.323-1.06.875-.905 1.916.154.813.148 1.518.13 2.127-.025.848-.193 1.729-.32 1.971-.125.24-.61.45-1.459.623-.445.096-.623.322-.537.68.088.355.409.468 1.028.478.058 0 .48.004 1.26-.072.802-.082 1.48-.166 2.158-.246.097-.012.244-.04.447-.059.203-.02.314-.029.334-.029-.02-.02-.103-.246-.188-.693a6.833 6.833 0 0 1-.14-1.245c0-.06-.024-.468-.03-1.232-.007-.775.014-1.312.155-2.04.066-.353.049-.436.203-.567.117-.096.318-.1.55-.1.057 0 .313-.03 1.563-.072a37.38 37.38 0 0 1 3.531.043c.368.02.659.115.872.289.21.174.326.271.345.29.057 0 .465.01 1.202-.1.853-.126 1.19-.173 1.92-.45.372-.14.585-.521.529-.984m-2.29 7.556c0-.482-.062-.869-.189-1.158-.125-.29-.275-.482-.447-.58-.137-.096-.367-.158-.695-.187-.329-.03-.569.013-.725.13-.133.096-.25.217-.348.362-.093.144-.144.37-.144.681v16.301c0 .385-.063.756-.188 1.113-.125.358-.593.633-1.402.827-.56.134-.783.38-.668.738.115.357.473.506 1.072.447.037 0 .404-.023 1.1-.07a13.52 13.52 0 0 0 2.316-.393c.076-.02.207-.047.39-.086.185-.039.286-.058.306-.058-.02-.04-.086-.367-.203-.985a8.879 8.879 0 0 1-.174-1.591v-5.848h.144c.272.017.567.125.883.316.318.194.488.3.506.319.039 0 .392-.028 1.058-.086a5.813 5.813 0 0 0 1.895-.492c.387-.174.547-.487.48-.942-.068-.453-.326-.69-.767-.709a22.99 22.99 0 0 0-1.1-.03h-3.099zM442.139 319.886a47.778 47.778 0 0 0-1.362-.1c-.46-.031-.945-.064-1.447-.101a2.022 2.022 0 0 1-.68-.204c-.24-.117-.37-.183-.39-.203-.018 0-.295.067-.825.203-.53.135-1.162.444-1.898.926-.482.309-.623.604-.42.883.205.28.547.38 1.03.305.675-.078 1.208-.131 1.591-.159.385-.03.936-.054 1.649-.074.773-.02 2.47.092 5.1.334 2.622.24 4.782.526 6.486.854.459.095.703-.067.722-.492.018-.426-.195-.706-.636-.84a50.489 50.489 0 0 0-3.07-.61 106.39 106.39 0 0 0-3.304-.49v-3.07c0-.387-.056-.694-.171-.926-.118-.232-.26-.396-.434-.492-.137-.096-.377-.16-.727-.19-.345-.027-.595.016-.75.131a1.584 1.584 0 0 0-.334.319c-.085.117-.13.298-.13.55v3.446m-.346 12.422-.145.65c-.04.164.008.342.145.537.19.309.646.453 1.36.434.714-.02 1.177-.184 1.39-.493.135-.173.193-.351.174-.535a7.803 7.803 0 0 0-.088-.593c1.256-.194 2.338-.676 3.244-1.448.906-.773 1.363-1.785 1.363-3.04 0-1.507-.611-2.684-1.828-3.532-1.215-.85-2.615-1.275-4.195-1.275-1.565 0-2.95.43-4.156 1.289-1.207.857-1.809 2.031-1.809 3.517 0 1.256.441 2.268 1.332 3.041.887.772 1.957 1.254 3.213 1.448m4.66-4.489c0 .867-.28 1.608-.838 2.215-.558.608-1.351.912-2.375.912-1.002 0-1.793-.31-2.36-.927a3.128 3.128 0 0 1-.853-2.2c0-.888.283-1.642.854-2.26.566-.617 1.357-.925 2.36-.925s1.79.308 2.357.926c.57.617.855 1.37.855 2.26m6.602-10.858c-.27-.022-.573-.033-.912-.043-.338-.012-.7-.035-1.084-.072a2.251 2.251 0 0 1-.594-.19c-.242-.105-.373-.168-.393-.187-.017 0-.275.039-.765.117-.493.074-1.137.353-1.924.84-.485.267-.668.562-.553.88.117.319.463.44 1.043.362.83-.076 1.457-.121 1.88-.129.427-.012 1.093-.035 1.999-.072h.654c.219 0 .436.01.649.03v12.536a3.3 3.3 0 0 1-.19 1.114c-.125.357-.592.632-1.402.826-.56.134-.78.38-.666.738.117.357.472.506 1.072.447.037 0 .404-.023 1.098-.07.695-.049 1.468-.18 2.318-.393.076-.02.207-.047.39-.086.182-.039.284-.058.303-.058-.019-.04-.087-.367-.2-.985a8.887 8.887 0 0 1-.175-1.591v-15.461c0-.485-.064-.87-.187-1.159-.127-.29-.275-.484-.451-.58-.133-.095-.365-.16-.692-.187-.332-.03-.572.015-.724.129-.137.097-.25.217-.35.363-.096.145-.144.373-.144.68zM456.773 308.874c-.56.25-3.1.55-3.156.55-.02-.02-.137-.11-.348-.275-.21-.164-.501-.257-.867-.275-1.37-.078-2.558-.092-3.564-.045-1.004.05-1.533.074-1.592.074-.232 0-.414.034-.55.102-.133.068-.182.25-.235.555a8.87 8.87 0 0 0-.143 1.877c.024.607.082 1.71.19 2.156.105.443.168.676.187.695-.02 0-.683.076-.779.088-.728.086-3.36.318-3.42.318-.598.04-.937-.123-1.025-.48-.088-.356.09-.582.535-.678.85-.176 1.338-.383 1.463-.623.234-.295.308-1.193.328-1.744-.04-.514-.049-1.02-.139-1.861-.117-1.053.088-1.594.768-1.883.531-.225 1.431-.317 2.183-.317l7.528.03c.504-.022.933-.03 1.29-.03.354 0 .718.02 1.085.057.443.04.695.29.752.752.06.465-.106.783-.49.957zM234.979 318.452c1.264.84 1.897 2.031 1.897 3.576 0 1.506-.638 2.67-1.912 3.49-1.274.82-2.576 1.23-3.908 1.23-1.37 0-2.679-.41-3.924-1.23-1.245-.82-1.867-1.984-1.867-3.49 0-1.523.622-2.713 1.867-3.56 1.245-.85 2.543-1.274 3.894-1.274 1.37 0 2.688.42 3.953 1.258m-6.905 3.576c0 .908.28 1.66.84 2.26.559.598 1.272.897 2.142.897.926 0 1.66-.3 2.2-.897.541-.6.811-1.352.811-2.26 0-.926-.275-1.703-.824-2.33-.551-.627-1.28-.941-2.187-.941-.87 0-1.583.314-2.143.941-.56.627-.84 1.404-.84 2.33zM226.105 327.646c.019.019.178.101.478.246.298.144.526.216.68.216 2.393.098 4.25.122 5.573.073 1.322-.05 2.39-.09 3.2-.13.482-.019.883-.028 1.202-.028.318 0 .642.01.969.029.482.039.748.273.796.709.05.433-.13.756-.535.969a4.844 4.844 0 0 1-1.766.507c-.657.069-1.004.102-1.042.102-.02-.02-.15-.111-.391-.277a2.222 2.222 0 0 0-.854-.332c-.078-.02-.304-.028-.681-.028-.377 0-.835-.01-1.376-.03v.985c0 .405.053.926.16 1.563.106.636.168.974.189 1.013-.02 0-.117.02-.29.059a7.481 7.481 0 0 0-.377.088c-.868.172-1.549.27-2.042.289-.492.02-.756.027-.795.027-.54.04-.85-.134-.926-.521-.078-.385.116-.627.578-.723.503-.097.777-.328.825-.695.048-.367.073-.733.073-1.1v-1.013h-1.39c-.406 0-.686.01-.84.029-.81.037-1.428.072-1.853.1-.425.029-.974.093-1.65.189-.54.096-.922-.006-1.144-.305-.223-.299-.082-.613.42-.94.79-.501 1.453-.806 1.983-.911.53-.108.806-.16.825-.16zM245.186 308.884c-.56.252-3.099.55-3.157.55a8.095 8.095 0 0 0-.347-.275c-.213-.164-.503-.256-.869-.275-1.37-.078-2.558-.092-3.562-.043-1.002.049-1.534.072-1.59.072-.233 0-.416.033-.551.1-.136.07-.184.252-.237.558a8.692 8.692 0 0 0-.14 1.873c.02.612.082 1.713.188 2.158.106.446.169.676.189.696-.02 0-.686.076-.782.086-.73.088-3.36.32-3.418.32-.598.04-.94-.121-1.028-.478-.087-.358.093-.584.537-.682.849-.172 1.336-.38 1.462-.621.236-.297.309-1.193.328-1.744-.038-.514-.048-1.02-.14-1.862-.114-1.052.09-1.593.767-1.88.534-.227 1.433-.32 2.187-.32l7.527.029c.503-.018.932-.03 1.29-.03.355 0 .718.022 1.085.059.443.039.694.29.753.754.057.463-.106.781-.492.955zM247.877 324.866c-.598.27-1.23.434-1.897.492-.665.057-1.016.088-1.055.088-.02-.021-.189-.127-.508-.32-.317-.191-.612-.299-.881-.316h-.146v6.166c0 .443.058.974.174 1.591.116.618.183.946.203.985-.02 0-.121.02-.305.058-.183.04-.314.067-.39.086-.85.213-1.622.344-2.316.393-.696.047-1.062.07-1.1.07-.6.059-.957-.09-1.072-.447-.116-.357.106-.604.666-.738.81-.194 1.278-.47 1.403-.826.126-.358.19-.73.19-1.114v-16.3c0-.311.048-.538.144-.682.095-.145.212-.266.347-.362.155-.117.397-.16.724-.13.328.029.56.091.695.187.174.098.323.29.449.58.125.29.188.676.188 1.158v7.702h3.099c.365 0 .734.01 1.1.029.443.02.7.256.767.709.067.453-.092.767-.479.941zM257.421 320.866c-1.05-.01-2.137-.025-3.256-.043a1.886 1.886 0 0 1-.854-.261 5.839 5.839 0 0 1-.42-.26c-.038 0-.377.052-1.014.158-.637.107-1.38.43-2.23.97-.56.348-.723.686-.492 1.014.232.328.647.444 1.245.346a47.274 47.274 0 0 1 1.94-.201c.502-.04 1.217-.078 2.143-.115.482-.022 3.03-.035 7.644-.045 4.613-.01 7.016-.004 7.21.015.386.02.718.13.998.332.28.204.43.315.45.334.057 0 .463-.039 1.215-.117a7.036 7.036 0 0 0 2.027-.492c.386-.191.545-.525.477-.998-.067-.475-.323-.729-.767-.768-.385-.039-.763-.056-1.13-.056-.366 0-.82.017-1.359.056-.58.059-1.58.102-2.998.131-1.419.028-3.14.043-5.168.043v-5.037c.791 0 1.636.014 2.534.043.898.027 1.848.053 2.853.072v-7.789c0-.5-.064-.886-.19-1.158-.125-.27-.274-.453-.448-.55-.135-.095-.372-.159-.71-.188-.338-.03-.583.015-.738.129a1.2 1.2 0 0 0-.348.421 1.202 1.202 0 0 0-.145.565v6.775c-2.412.077-4.01.112-4.79.102-.783-.01-1.791-.035-3.027-.072a3.13 3.13 0 0 1-.65-.203c-.223-.098-.343-.155-.363-.174-.02 0-.256.037-.71.115-.454.078-1.066.357-1.838.84-.56.347-.73.67-.507.97.222.3.603.4 1.144.303.56-.058 1.057-.097 1.492-.115l1.924-.086c.155 0 .392-.006.71-.016.319-.01.71-.013 1.173-.013v5.066c-.967-.02-1.975-.035-3.027-.043m11.322 6.53c-.434-1.237-.913-2.26-1.433-3.07-.348-.542-.792-.74-1.333-.595-.54.145-.743.4-.607.768.405 1.102.714 2.129.927 3.084.21.955.376 1.799.492 2.533.038.272.023.469-.044.594s-.237.188-.506.188c-.097 0-.97.029-2.62.087-1.651.057-3.355.01-5.111-.144a2.018 2.018 0 0 1-.68-.203c-.243-.115-.372-.184-.392-.203-.019 0-.29.072-.81.216-.521.145-1.12.43-1.796.856-.599.385-.767.736-.506 1.056.26.319.69.42 1.289.303l1.462-.174c.163-.02.786-.066 1.866-.144.502-.018 1.685-.02 3.548 0s3.208.039 4.039.058c.174 0 .38.059.622.174.241.115.372.184.392.203.038 0 .254-.048.65-.146.396-.096.69-.25.884-.461.29-.31.487-.586.593-.826.107-.242.11-.614.014-1.115-.192-.791-.506-1.805-.94-3.04zM296.321 308.888c-.579.271-1.24.445-1.983.521a41.83 41.83 0 0 1-1.173.115c-.02-.017-.154-.125-.405-.316-.25-.193-.541-.3-.868-.32a68.747 68.747 0 0 0-4.097-.03c-1.377.026-2.033.059-2.129.059-.213 0-.415-.002-.535.102-.18.152-.225.404-.256.6a9.894 9.894 0 0 0-.135 2.019c.02.697.082 1.873.188 2.318.106.443.168.676.188.693-.02 0-.39.07-.593.088-.203.022-1.472.172-2.304.239-.824.07-1.243.08-1.301.08-.6.039-.938-.121-1.014-.479-.077-.357.12-.564.58-.68.926-.234 1.346-.398 1.448-.638.278-.662.296-1.274.316-1.852a10.396 10.396 0 0 0-.142-2.054c-.156-1.063.1-1.745.789-1.973.81-.266 1.437-.248 2.17-.248l8.623.02c.5-.02.93-.03 1.287-.03.357 0 .718.02 1.085.057.444.04.695.295.753.767.058.475-.106.787-.492.942z" style="fill:#7b7979;fill-opacity:1;fill-rule:nonzero;stroke:none" transform="matrix(.35278 0 0 -.35278 -45.432 124.177)"/><path d="M300.375 319.978c-.6.252-1.273.416-2.026.492-.753.076-1.16.115-1.217.115-.02-.02-.17-.129-.448-.332a1.8 1.8 0 0 0-1-.332c-.194-.02-2.597-.025-7.21-.016-4.613.01-7.16.026-7.642.043-.928.04-1.643.076-2.143.116-.502.038-1.15.107-1.94.203-.599.097-1.015-.014-1.246-.332-.232-.319-.068-.663.493-1.03.848-.539 1.593-.863 2.229-.968.636-.108.974-.16 1.013-.16.02.019.16.1.42.247.26.143.545.225.855.245 1.294.039 2.544.062 3.75.074 1.206.008 2.34.023 3.401.043v-5.24c0-.311.043-.557.13-.739a1.05 1.05 0 0 1 .333-.422c.155-.115.416-.158.781-.129.367.03.62.092.754.188.173.098.319.334.434.709.115.377.174.807.174 1.289v4.344c1.814-.02 3.353-.05 4.619-.088a76.407 76.407 0 0 0 2.707-.115c.54-.04.993-.059 1.36-.059.366 0 .743.02 1.13.059.443.039.7.308.767.81.067.502-.092.83-.478.985zM280.744 331.501c.366-.059.598-.197.695-.42.26-.572.293-1.678.317-2.623a12.602 12.602 0 0 0-.201-2.691c-.115-1.022.195-1.565.81-1.895.428-.23 1.362-.344 2.23-.361.154-.004 1.419.023 3.794.07 2.373.049 4.641.035 6.803-.043a53.619 53.619 0 0 0-.073 5.936c.088 1.873.16 2.992.218 3.359a83.186 83.186 0 0 0-9.468-.275c-3.166.087-4.855.14-5.067.158-.599 0-.908-.184-.927-.549-.02-.367.271-.59.87-.666m3.531-2.549c.04 1.004.076 1.68.117 2.028.481.039 1.504.072 3.068.101a64.432 64.432 0 0 0 4.864-.101c.058-.348.116-1.077.175-2.186.057-1.111 0-2.264-.175-3.461-1.93-.193-3.575-.256-4.936-.188-1.362.069-2.09.112-2.186.131-.289 0-.492.028-.608.086-.117.059-.147.242-.173.55-.104 1.17-.184 2.038-.146 3.04zM312.002 317.599c1.022.095 2.05.212 3.082.347 1.033.135 1.935.27 2.707.405.483.097.734-.067.754-.49.02-.426-.193-.696-.636-.813a45.219 45.219 0 0 0-5.096-.912c-1.7-.201-3.746-.381-6.14-.535a2.117 2.117 0 0 1-.665-.204c-.251-.115-.387-.181-.405-.2-.02 0-.3.066-.84.2-.541.137-1.177.454-1.911.957-.483.307-.618.598-.405.868.211.271.559.367 1.041.289a40.164 40.164 0 0 1 1.58-.159c.394-.029.95-.052 1.663-.072.212 0 .55.01 1.014.028.463.02 1.003.048 1.622.087v2.375a6.283 6.283 0 0 0-2.94 1.418c-.859.735-1.288 1.69-1.288 2.868 0 1.447.593 2.54 1.78 3.287 1.186.742 2.447 1.113 3.78 1.113 1.312 0 2.576-.371 3.792-1.113 1.216-.746 1.824-1.84 1.824-3.287 0-1.198-.439-2.159-1.317-2.881a6.551 6.551 0 0 0-2.996-1.405V317.6m.058 13.318c.385.02.713.033.984.043.27.01.433.025.491.045.328.056.613.168.854.332.242.164.373.256.392.275.04 0 .381-.033 1.028-.101a5.18 5.18 0 0 0 1.78-.506c.426-.233.613-.55.565-.957-.048-.404-.324-.627-.824-.664-.35-.02-.678-.032-.986-.032-.309 0-.703.012-1.186.032-.812.037-1.685.08-2.622.129-.935.048-2.6.023-4.994-.073-.153 0-.382-.072-.68-.216-.3-.145-.47-.227-.508-.247-.018 0-.288.053-.81.16-.52.106-1.167.41-1.938.91-.522.329-.672.634-.45.913.222.28.602.371 1.143.275a31.73 31.73 0 0 1 1.666-.2c.433-.04 1.047-.079 1.838-.118.134-.02.352-.027.651-.027h1v.171c0 .368-.025.733-.073 1.1-.048.367-.322.6-.824.695-.464.098-.658.338-.58.725.077.387.385.559.926.521.038 0 .304-.01.796-.029.492-.02 1.173-.115 2.042-.29.077-.018.202-.048.376-.087.174-.039.27-.056.29-.056-.02-.04-.082-.377-.188-1.014-.108-.637-.16-1.158-.16-1.565v-.144m1.476-6.861c0 .906-.26 1.605-.781 2.1-.522.491-1.207.738-2.056.738-.829 0-1.51-.247-2.04-.739-.531-.494-.797-1.193-.797-2.1 0-.869.266-1.548.797-2.04.53-.493 1.211-.739 2.04-.739.849 0 1.534.246 2.056.739.521.492.781 1.171.781 2.04m8.861.202h.145c.27.02.564.125.883.32.318.193.486.299.506.318.039 0 .392-.03 1.056-.087a5.774 5.774 0 0 0 1.897-.493c.386-.173.545-.488.478-.939-.068-.455-.324-.691-.767-.711-.366-.02-.735-.03-1.1-.03h-3.098V312.3c0-.483-.062-.91-.189-1.287-.125-.375-.275-.614-.45-.711-.134-.096-.366-.158-.693-.188-.328-.029-.57.016-.724.131a1.19 1.19 0 0 0-.348.418c-.096.186-.144.432-.144.74v19.631a3.3 3.3 0 0 1-.19 1.113c-.125.358-.592.633-1.403.827-.56.134-.781.38-.666.738.116.357.473.506 1.072.447.038 0 .405-.023 1.1-.07a13.52 13.52 0 0 0 2.317-.393c.076-.02.205-.047.39-.086a3.46 3.46 0 0 1 .305-.058c-.021-.04-.088-.367-.203-.985a8.706 8.706 0 0 1-.174-1.591zM363.404 320.638c1.176.097 2.414.218 3.705.363 1.293.144 2.424.295 3.387.447.463.098.705-.062.725-.476.02-.414-.184-.69-.608-.824a45.405 45.405 0 0 0-5.023-.915c-1.65-.2-3.672-.38-6.067-.533a2.168 2.168 0 0 1-.695-.203c-.25-.117-.385-.184-.404-.203-.02 0-.299.066-.84.203-.541.135-1.178.453-1.91.955-.483.309-.62.608-.406.899.213.287.57.384 1.072.287a35.835 35.835 0 0 1 1.549-.159c.394-.029.959-.052 1.693-.072h.492c.211 0 .463.01.752.03v3.386c0 .387-.053.764-.158 1.13-.105.366-.469.599-1.086.694-.482.096-.682.329-.594.696.088.367.42.54 1 .521.037 0 .375-.015 1.012-.045.639-.027 1.334-.119 2.086-.273a3.97 3.97 0 0 1 .361-.072c.162-.03.256-.043.276-.043-.02-.041-.078-.387-.172-1.043-.098-.659-.147-1.178-.147-1.565v-3.185m6.37 8.92a48.53 48.53 0 0 0-.854-2.985c-.377-1.195-.807-2.219-1.287-3.068-.31-.541-.725-.738-1.248-.592-.52.143-.723.4-.606.766.328 1.08.582 2.1.766 3.054.184.955.314 1.791.393 2.506.035.268.023.477-.045.621-.067.145-.217.217-.448.217-.06 0-.603.025-1.636.072-1.032.05-2.409-.004-4.127-.158a2.055 2.055 0 0 1-.637-.19c-.232-.105-.357-.167-.375-.187-.02 0-.287.072-.797.217-.512.145-1.105.43-1.781.855-.598.405-.764.756-.492 1.057.27.299.693.389 1.273.276a82.695 82.695 0 0 0 1.418-.147c.154-.02.764-.066 1.824-.143.504-.019 1.354-.021 2.55-.002 1.196.02 2.2.04 3.01.06.157 0 .354.052.593.16.242.105.375.167.392.185.04 0 .256-.043.653-.13.394-.087.697-.235.91-.448.293-.27.48-.545.566-.825.086-.279.082-.671-.016-1.171m5.3-18.243c0-1.523-.633-2.744-1.9-3.662a7.055 7.055 0 0 0-4.24-1.375c-1.523 0-2.927.463-4.21 1.389-1.285.928-1.928 2.143-1.928 3.648 0 1.565.637 2.8 1.912 3.707s2.684 1.362 4.227 1.362c1.545 0 2.95-.455 4.226-1.362 1.276-.908 1.912-2.142 1.912-3.707m-2.722 0c0 .967-.313 1.78-.942 2.448-.627.664-1.449.998-2.474.998-1.002 0-1.819-.334-2.446-.998-.627-.668-.941-1.48-.941-2.448 0-.945.314-1.755.941-2.431.627-.676 1.444-1.014 2.446-1.014 1.045 0 1.87.338 2.49 1.014.617.676.926 1.486.926 2.431m2.75 13.725v-5.85c0-.482-.063-.867-.188-1.156-.125-.29-.273-.482-.447-.58-.137-.098-.37-.16-.697-.187-.327-.032-.569.013-.723.128a1.403 1.403 0 0 0-.348.364c-.097.144-.144.37-.144.68v12.595c0 .385-.063.756-.188 1.113-.127.358-.593.633-1.404.827-.563.134-.781.38-.666.738.115.357.473.506 1.07.447.037 0 .407-.023 1.1-.07a13.57 13.57 0 0 0 2.318-.393c.076-.02.207-.047.39-.086a3.32 3.32 0 0 1 .306-.058c-.022-.04-.088-.367-.204-.985a8.73 8.73 0 0 1-.175-1.591v-4.315h.146c.27.02.565.125.881.318.32.194.488.3.508.319.037 0 .392-.03 1.056-.088a5.795 5.795 0 0 0 1.899-.49c.383-.174.545-.489.476-.942-.066-.455-.324-.69-.767-.709-.365-.021-.734-.029-1.102-.029h-1.388zM400.272 328.022c-.194-.02-.407-.035-.64-.045a19.916 19.916 0 0 1-.751-.042 2.074 2.074 0 0 1-.639-.188c-.232-.107-.357-.17-.375-.19-.02 0-.277.04-.77.118-.49.078-1.142.357-1.952.84-.465.27-.637.568-.522.896.117.328.455.453 1.014.377a28.776 28.776 0 0 1 1.896-.13c.434-.01 1.106-.034 2.012-.073h.727v1.45a3.3 3.3 0 0 1-.19 1.113c-.125.357-.594.632-1.404.826-.56.134-.781.38-.668.738.119.357.476.506 1.074.447.037 0 .404-.023 1.1-.07a13.55 13.55 0 0 0 2.316-.393c.074-.02.205-.047.39-.086.184-.039.286-.058.305-.058-.02-.04-.088-.367-.205-.985a8.863 8.863 0 0 1-.172-1.591v-15.49c0-.483-.062-.87-.19-1.159-.124-.29-.274-.482-.446-.58-.137-.096-.367-.158-.696-.187-.328-.03-.57.013-.722.13a1.376 1.376 0 0 0-.352.362c-.096.144-.14.37-.14.681v7.122a7.872 7.872 0 0 0-.582-.043c-.211-.012-.434-.024-.667-.043a2.053 2.053 0 0 1-.634-.188 3.208 3.208 0 0 1-.38-.19c-.017 0-.273.044-.765.132-.492.085-1.144.37-1.955.853a1.354 1.354 0 0 0-.523.522c-.559-.87-1.328-1.545-2.313-2.028a6.955 6.955 0 0 0-3.1-.722c-1.56 0-2.986.519-4.269 1.562-1.283 1.043-1.924 2.393-1.924 4.053 0 1.467.48 2.654 1.446 3.56a6.706 6.706 0 0 0 3.386 1.739c-.058.271-.11.488-.156.65-.049.166-.006.353.129.566.193.309.646.453 1.361.434.713-.02 1.178-.182 1.39-.492a.714.714 0 0 0 .157-.551c-.03-.191-.062-.404-.1-.635a6.72 6.72 0 0 0 3.415-1.738c.966-.908 1.449-2.086 1.449-3.533 0-.385-.04-.762-.115-1.13a4.56 4.56 0 0 0-.348-1.04.766.766 0 0 0 .289.058c.096 0 .203-.011.32-.029.85-.078 1.485-.121 1.91-.133.424-.008 1.09-.033 1.997-.07h.582v4.604m-7.385-2.26c0 1.082-.301 2.01-.899 2.78-.597.772-1.466 1.16-2.605 1.16-1.06 0-1.9-.388-2.52-1.16-.617-.77-.925-1.698-.925-2.78 0-1.1.308-2.041.925-2.823.62-.78 1.46-1.171 2.52-1.171 1.139 0 2.008.39 2.605 1.171.598.782.899 1.723.899 2.823m11.668-16.88c.394-.15.549-.491.492-.954-.057-.463-.31-.715-.752-.754-.37-.037-.729-.059-1.086-.059-.357 0-.787.012-1.29.03l-7.468-.03c-.926.037-1.363-.039-2.156.32-.656.295-.91.81-.799 1.881.137 1.282.154 1.567.131 2.434-.023.902-.062 1.15-.082 1.256-.076.58-.111.832-.236 1.074-.127.24-.612.45-1.461.623-.446.096-.625.322-.537.68.086.355.43.517 1.029.476.057 0 2.72-.236 3.416-.316.096-.012.244-.025.445-.043.203-.02.319-.045.338-.045-.02-.02-.086-.25-.19-.695a6.584 6.584 0 0 1-.161-1.188c-.002-.076-.032-.603-.026-1.576.002-.998.028-1.7.145-2.426.056-.363.133-.543.267-.611.133-.068.227-.064.455-.064.057 0 .487-.02 1.623-.055.983-.031 2.16-.035 3.532.043.365.02.654.115.869.289.209.174.328.271.345.29.059 0 .465.009 1.202-.1.836-.126 1.302-.231 1.955-.48zM415.707 319.647c-1.05-.01-2.137-.033-3.258-.072a2 2 0 0 1-.853-.246c-.26-.144-.4-.227-.42-.246-.04 0-.377.053-1.014.16-.637.106-1.379.43-2.226.969-.563.348-.729.685-.496 1.014.232.328.646.445 1.244.347.793-.097 1.439-.164 1.943-.203a71.583 71.583 0 0 1 2.143-.115c.482-.02 3.03-.035 7.644-.045 4.611-.01 7.012-.004 7.207.016.387.02.72.13 1 .334.281.2.428.312.451.332.057 0 .46-.04 1.215-.116a7.164 7.164 0 0 0 2.026-.492c.386-.174.544-.508.476-1-.064-.492-.322-.758-.767-.795a10.61 10.61 0 0 0-1.127-.058c-.37 0-.823.017-1.364.058-.578.057-1.576.106-2.996.145-1.418.039-3.14.058-5.17.058v-7.384c0-.483-.056-.91-.17-1.288-.117-.376-.263-.613-.435-.709-.135-.097-.39-.16-.766-.189-.379-.027-.642.014-.799.13a1.06 1.06 0 0 0-.332.42c-.088.184-.129.429-.129.74v8.251c-.966 0-1.976-.006-3.027-.015m11.393 7.181c-.461-1.42-.963-2.535-1.504-3.344-.346-.543-.787-.74-1.317-.595-.531.144-.728.4-.595.77a22.054 22.054 0 0 1 1 3.357c.24 1.138.42 2.074.535 2.808.039.27.025.469-.045.594-.069.125-.233.187-.506.187-.115 0-1.066.03-2.852.088a44.07 44.07 0 0 1-5.312-.146 2.006 2.006 0 0 1-.68-.201c-.242-.117-.375-.184-.392-.203-.02 0-.29.072-.81.216-.522.145-1.12.43-1.796.854-.598.387-.766.74-.508 1.057.264.32.692.42 1.29.304.81-.095 1.298-.154 1.462-.174.166-.017.787-.066 1.867-.144.504-.02 1.75-.02 3.75 0 1.998.02 3.413.039 4.243.058.173 0 .382.059.623.174.238.116.369.184.388.203.04 0 .266-.017.655-.146.396-.131.607-.256.88-.463.338-.256.524-.502.614-.748.086-.234.111-.613.015-1.115-.193-.791-.543-1.973-1.005-3.39z" style="fill:#7b7979;fill-opacity:1;fill-rule:nonzero;stroke:none" transform="matrix(.35278 0 0 -.35278 -45.432 124.177)"/></svg>